FILE "Samurai Spirits Soundtrack (1993)(Pony Canyon)(JP)[CD-Audio].img" BINARY
  TRACK 01 AUDIO
    ISRC JPPC09320130
    INDEX 01 00:00:00
  TRACK 02 AUDIO
    ISRC JPPC09320140
    INDEX 01 00:39:32
  TRACK 03 AUDIO
    ISRC JPPC09320150
    INDEX 01 01:11:62
  TRACK 04 AUDIO
    ISRC JPPC09320160
    INDEX 01 01:50:62
  TRACK 05 AUDIO
    ISRC JPPC09320170
    INDEX 01 01:59:22
  TRACK 06 AUDIO
    ISRC JPPC09320180
    INDEX 01 05:55:37
  TRACK 07 AUDIO
    ISRC JPPC09320190
    INDEX 01 09:10:62
  TRACK 08 AUDIO
    ISRC JPPC09320200
    INDEX 01 09:23:07
  TRACK 09 AUDIO
    ISRC JPPC09320210
    INDEX 01 11:13:67
  TRACK 10 AUDIO
    ISRC JPPC09320220
    INDEX 01 13:37:05
  TRACK 11 AUDIO
    ISRC JPPC09320230
    INDEX 01 14:07:52
  TRACK 12 AUDIO
    ISRC JPPC09320240
    INDEX 01 16:26:10
  TRACK 13 AUDIO
    ISRC JPPC09320250
    INDEX 01 18:50:67
  TRACK 14 AUDIO
    ISRC JPPC09320260
    INDEX 01 21:07:00
  TRACK 15 AUDIO
    ISRC JPPC09320270
    INDEX 01 22:34:07
  TRACK 16 AUDIO
    ISRC JPPC09320280
    INDEX 01 24:20:42
  TRACK 17 AUDIO
    ISRC JPPC09320290
    INDEX 01 27:39:22
  TRACK 18 AUDIO
    ISRC JPPC09320300
    INDEX 01 29:55:05
  TRACK 19 AUDIO
    ISRC JPPC09320310
    INDEX 01 32:10:45
  TRACK 20 AUDIO
    ISRC JPPC09320320
    INDEX 01 34:30:37
  TRACK 21 AUDIO
    ISRC JPPC09320330
    INDEX 01 34:37:65
  TRACK 22 AUDIO
    ISRC JPPC09320340
    INDEX 01 34:48:10
  TRACK 23 AUDIO
    ISRC JPPC09320350
    INDEX 01 35:02:12
  TRACK 24 AUDIO
    ISRC JPPC09320360
    INDEX 01 35:12:30
  TRACK 25 AUDIO
    ISRC JPPC09320370
    INDEX 01 38:22:40
  TRACK 26 AUDIO
    ISRC JPPC09320380
    INDEX 01 38:42:67
  TRACK 27 AUDIO
    ISRC JPPC09320390
    INDEX 01 40:32:67
  TRACK 28 AUDIO
    ISRC JPPC09320400
    INDEX 01 41:24:30
  TRACK 29 AUDIO
    ISRC JPPC09320410
    INDEX 01 44:00:12
  TRACK 30 AUDIO
    ISRC JPPC09320420
    INDEX 00 44:12:55
    INDEX 01 44:16:30
  TRACK 31 AUDIO
    ISRC JPPC09320430
    INDEX 01 44:36:02
  TRACK 32 AUDIO
    ISRC JPPC09320440
    INDEX 01 45:15:65
  TRACK 33 AUDIO
    ISRC JPPC09320450
    INDEX 01 45:41:52
  TRACK 34 AUDIO
    ISRC JPPC09320460
    INDEX 01 46:04:35
  TRACK 35 AUDIO
    ISRC JPPC09320470
    INDEX 01 46:24:05
  TRACK 36 AUDIO
    ISRC JPPC09320480
    INDEX 01 46:44:57
  TRACK 37 AUDIO
    ISRC JPPC09320490
    INDEX 01 47:04:02
  TRACK 38 AUDIO
    ISRC JPPC09320500
    INDEX 01 47:20:12
  TRACK 39 AUDIO
    ISRC JPPC09320510
    INDEX 01 47:39:62
  TRACK 40 AUDIO
    ISRC JPPC09320520
    INDEX 01 48:00:42
  TRACK 41 AUDIO
    ISRC JPPC09320530
    INDEX 01 48:19:12
  TRACK 42 AUDIO
    ISRC JPPC09320540
    INDEX 01 48:40:42
  TRACK 43 AUDIO
    ISRC JPPC09320550
    INDEX 01 48:55:72
  TRACK 44 AUDIO
    ISRC JPPC09320560
    INDEX 01 49:10:20
  TRACK 45 AUDIO
    ISRC JPPC09320570
    INDEX 01 49:32:35
  TRACK 46 AUDIO
    ISRC JPPC09320580
    INDEX 01 51:40:62
